<svg xmlns="http://www.w3.org/2000/svg" viewBox="0 0 237.44 250.5"><defs><style>.cls-1,.cls-3{fill:#182b3a;}.cls-1{stroke:#fff;stroke-miterlimit:10;}.cls-2{fill:#fff;}.cls-4{fill:#0ca8cc;}.cls-5{fill:#087294;}.cls-6{fill:#fefefe;}.cls-7{fill:#20bae0;}.cls-8{fill:#2392cf;}.cls-9{fill:#f69f15;}.cls-10{fill:#cf4a17;}.cls-11{fill:#328c36;}.cls-12{fill:#9cc426;}.cls-13{fill:#0e212e;}.cls-14{fill:#09b5d5;}</style></defs><title>logo-centro-deportivo-fondooscuro</title><g id="Capa_2" data-name="Capa 2"><g id="Capa_1-2" data-name="Capa 1"><path class="cls-1" d="M135.6,80.22a11.59,11.59,0,0,1-6.48,1.24c-5.13-.19-8.39,2.26-12.37,5.15-2.22,1.61-4.23,3.5-6.34,5.27l.21.34a14.32,14.32,0,0,0,2.14-1,24.82,24.82,0,0,1,10.6-3.81c3.08-.41,6.19-1.18,9.25-1,10.18.56,19.61,3.56,27.69,10,3.81,3,6.36,7,6.11,12.08a46.69,46.69,0,0,1-1.21,6.31c-3.11-4.43-7.31-6.38-11.86-7.45a26.26,26.26,0,0,0-14.33.3,50.21,50.21,0,0,1-18,2.58c-6-.28-11.62-1.75-15.73-6.44-4.61-5.28-5.74-11.34-3.39-18.06,2.06-5.9,6.08-10.47,9.75-15.34S118.73,60.24,122,55c2.23-3.64,3.94-7.59,5.89-11.4a20.36,20.36,0,0,1,8,4.6c2.89,2.48,4.46,5.78,5.83,9.22a23,23,0,0,1,.17,9.43C141,71.87,138.55,76.16,135.6,80.22Z"/><path class="cls-2" d="M135.6,80.22c3-4.06,5.37-8.35,6.25-13.41a23,23,0,0,0-.17-9.43c.91-1.8,1.88-3.58,2.71-5.41a2.57,2.57,0,0,0,.2-1.9,30.94,30.94,0,0,0-3.37-6,23.08,23.08,0,0,0-16.44-8.52,74.28,74.28,0,0,0-11.65,0A62.68,62.68,0,0,0,105.4,37l-6.8,2.33-3.77-.07a29.73,29.73,0,0,1,3.5-2.79,87,87,0,0,1,17.9-8.28,41.89,41.89,0,0,1,7.48-1.44,60.9,60.9,0,0,1,8.1-.44c5.19.08,10.3.93,14.76,3.71a21.77,21.77,0,0,1,7.24,6.86,39.29,39.29,0,0,1,3.31,6.24,57.76,57.76,0,0,1,1.51,6.46c1.17,4.72,2.7,5.36,6.81,2.54a25,25,0,0,0,2-1.69c.24.14.46.2.48.3.91,3.86,4,6.41,5.81,9.7s3.57,6.68,5.25,10.08c.38.78.69,1.34,1.61,1.3-.22.38-.59.74-.63,1.13a1.94,1.94,0,0,1-2.3,2,16.37,16.37,0,0,1-2.8,0c-2.08-.41-4.41-.56-6.12-1.64-1.94-1.21-3.3-3.33-4.91-5.06Q165.38,65.63,167,63c.14-.54,0-.65-.51-.39a13.88,13.88,0,0,0-2,1.76,38.39,38.39,0,0,1-11.18,9.09c-3.56,2.07-7.66,3.14-11.49,4.74-1.57.59-2.81.94-4.24,1.41A19,19,0,0,0,135.6,80.22Z"/><path class="cls-1" d="M44.1,169.87c1.91-3.05,6.58-5.36,8.41-8.45,2.34-3.93,4.37-8.06,6.91-11.85a66,66,0,0,1,18.89-18.69c4.27-2.8,7.17-6.59,9.68-10.82,3.08-5.18,6.06-10.43,9.08-15.65.32-.54.59-1.1.94-1.76,5.41,8.59,13.88,11.35,23.71,12.36-3.66,3-7,5.71-10.43,8.39a1.53,1.53,0,0,1-1.37,0,15.63,15.63,0,0,0-7.88-1.54c-2.65.09-4.58,1.59-6.15,3.57A19,19,0,0,0,93.61,129c-3.32,7-8.59,12.62-12.56,19.15-2.56,4.24-6.61,7.06-10.55,9.87a241.57,241.57,0,0,0-22.81,18c-.45.41-.92.79-1.38,1.19-.85-1.28-.5-2.68-.42-4.05C46.2,172.28,43.79,170.72,44.1,169.87Z"/><path class="cls-1" d="M111.4,129l15.74-10.45c4.81-3.2,9.79-6.07,15.54-7.22,6-1.21,11.92-1,17.5,1.74a14.86,14.86,0,0,1,3.49,2.82c.89.87.75,1.59-.38,2.49-7.88,6.24-17.24,9.31-26.55,12.43-8,2.7-16.2,5-24.3,7.54-1.83.57-3.61,1.28-5.42,1.92-.49-.71-.82-1.69-1.5-2.07a3.35,3.35,0,0,1-2-3.61c.83-.51,1.69-1,2.48-1.55C107.8,131.76,109.59,130.39,111.4,129Z"/><path class="cls-2" d="M173.5,21.08a11.72,11.72,0,0,1,11.43,8c1.7,4.54.08,10.18-4,13.67-3.17,2.74-6.69,4.46-10.84,2.44a14.8,14.8,0,0,1-7.71-9.15c-1.52-4.75-.06-8.76,3.55-12A10.18,10.18,0,0,1,173.5,21.08Z"/><path class="cls-3" d="M199,64.49c0-2-1.26-2.57-3-2.81-.63-.08-1.16-.79-1.74-1.22l.19-.51.45-.74a4,4,0,0,0-1.15-3.66c-2.21-2.46-2.32-5.55-1.81-8.53s3.79-3.55,6.3-1.5,3.19,4.83,3.14,7.82a21.71,21.71,0,0,1-2,9.7A6.15,6.15,0,0,0,199,64.49Z"/><path class="cls-2" d="M144.59,50.07a30.94,30.94,0,0,0-3.37-6,23.08,23.08,0,0,0-16.44-8.52,74.28,74.28,0,0,0-11.65,0A62.88,62.88,0,0,0,105.41,37L98.7,39.32c-3.07,1.46-4.22,2-7.24,3.48l-.09.06c-1.66,1.6-1.67,5.69-3.35,7.25.25,1.66,3,1,3.57,1.3-.29-5.42,1.27-5.91,4.73-7.1a60.55,60.55,0,0,1,23.09-2.85l8.43,2.1a20.36,20.36,0,0,1,8,4.6c2.89,2.48,4.46,5.78,5.83,9.22.91-1.8,1.88-3.58,2.71-5.41A2.57,2.57,0,0,0,144.59,50.07Z"/><path class="cls-2" d="M98.6,39.37c-3,1.44-4.86,3.21-7.87,4.66C92.24,41,92.8,41,94.42,39.57l.37-.27h0Z"/><path class="cls-2" d="M103.49,134.63a3.35,3.35,0,0,0,2,3.61c.68.38,1,1.36,1.5,2.07-.16.19-.29.46-.49.55A101.4,101.4,0,0,0,88.8,151a2.56,2.56,0,0,1-.56.24l-.4.27h0c-1.35-.58-.94-1.72-.88-2.75h0l.55-1h0l.38-.61a.53.53,0,0,1,0-.25c.06-.14.13-.27.19-.41h0l.34-.37a.16.16,0,0,1,.07-.15l.84-1.37v0l.43-.53h0l3.37-4.77h0l.58-1h0l.42-.52v0c1.79-.52,3.6-1,5.36-1.58C100.89,135.78,102.18,135.17,103.49,134.63Z"/><path class="cls-2" d="M103.49,134.63c-1.31.54-2.6,1.15-3.95,1.61-1.76.59-3.57,1.06-5.36,1.58.37-.72.74-1.45,1.12-2.17,1-2,2.1-4,3.14-6.05,1.57-3.08,3-3.79,6.24-2.84,2.27.65,4.48,1.51,6.72,2.28-1.81,1.35-3.6,2.72-5.43,4C105.18,133.65,104.32,134.12,103.49,134.63Z"/><path class="cls-2" d="M87,148.77c-.06,1-.47,2.17.88,2.75L85,153.63l-.4-.37A8.66,8.66,0,0,1,87,148.77Z"/><path class="cls-4" d="M93.17,139.33,89.8,144.1Z"/><path class="cls-2" d="M196,61.68c-.63-.08-1.16-.79-1.74-1.22L193,62.76s-.9.86-.93.92l-.3.41a.22.22,0,0,0-.1.13l-.2.18a.15.15,0,0,0-.11.12L188,68a9.82,9.82,0,0,1-1,.67c-2.13,1.08-4.27,2.14-6.41,3.2-.22.38-.59.74-.63,1.13a1.94,1.94,0,0,1-2.3,2,16.37,16.37,0,0,1-2.8,0c-2.08-.41-4.41-.56-6.12-1.64-1.94-1.21-3.3-3.33-4.91-5.06-1.12,1.3-2.21,2.63-3.37,3.9a2.41,2.41,0,0,0-.21,3.47,29.84,29.84,0,0,0,10.52,8.92C175.9,87.18,181,87.1,186,83.69a31.54,31.54,0,0,0,6.9-7.13A40.08,40.08,0,0,0,199,64.49C199,62.48,197.73,61.92,196,61.68Z"/><path class="cls-4" d="M89.37,144.61,88.53,146Z"/><path class="cls-4" d="M87.51,147.77l-.55,1Z"/><path class="cls-4" d="M93.74,138.36l-.58,1Z"/><path class="cls-5" d="M194.88,59.21l-.45.74Z"/><path class="cls-4" d="M192.63,63c-.16.19-.31.38-.47.56C192.32,63.39,192.47,63.2,192.63,63Z"/><path class="cls-4" d="M87.89,147.16l-.38.61Z"/><path class="cls-4" d="M94.17,137.84l-.42.52Z"/><path class="cls-4" d="M192,63.68l-.3.41Z"/><path class="cls-3" d="M103.85,72.75l.63-.24Z"/><path class="cls-4" d="M89.8,144.1l-.43.53Z"/><path class="cls-4" d="M88.46,146.13l-.34.37C88.23,146.38,88.34,146.25,88.46,146.13Z"/><path class="cls-4" d="M87.84,151.52l.4-.27Z"/><path class="cls-4" d="M94.79,39.3l-.37.27Z"/><path class="cls-3" d="M103.55,73.07l.34-.33Z"/><path class="cls-4" d="M88.12,146.5c-.06.14-.13.27-.19.41C88,146.77,88.06,146.64,88.12,146.5Z"/><path class="cls-6" d="M167.33,61.8l-.28.51-.22-.1.23-.56Z"/><path class="cls-2" d="M44.58,169.82a3.36,3.36,0,0,0,2.64,3.2c.73.25,1.23,1.16,1.84,1.77-.13.21-.21.5-.39.62A101.4,101.4,0,0,0,33,188.54a2.71,2.71,0,0,1-.52.33l-.34.34h0c-1.43-.33-1.22-1.52-1.35-2.54h0c.11-.36.23-.72.35-1.08h0l.27-.67a.57.57,0,0,1,0-.26c0-.14.07-.29.11-.43h0c.08-.14.17-.28.26-.42a.19.19,0,0,1,0-.16c.2-.5.4-1,.59-1.49v0l.33-.6h0l2.48-5.28h0c.13-.36.27-.71.4-1.07h0c.1-.2.21-.39.32-.59h0c1.67-.83,3.37-1.61,5-2.51C42.22,171.42,43.38,170.58,44.58,169.82Z"/><path class="cls-2" d="M44.58,169.82c-1.2.76-2.36,1.6-3.6,2.28-1.63.9-3.33,1.68-5,2.51.24-.78.47-1.56.72-2.34.67-2.17,1.36-4.34,2-6.51,1-3.31,2.24-4.25,5.64-3.9,2.35.24,4.68.7,7,1.06-1.54,1.65-3.07,3.32-4.64,4.94C46.07,168.56,45.3,169.17,44.58,169.82Z"/><path class="cls-2" d="M30.8,186.66c.13,1-.08,2.21,1.35,2.54l-2.43,2.58-.45-.29A8.64,8.64,0,0,1,30.8,186.66Z"/><path class="cls-3" d="M92.65,41.06a1.88,1.88,0,0,0,.84,2.71c.34.22.43.85.64,1.29l-.27.3-.5.38a3.29,3.29,0,0,0-.45,2.8c.54,2.26-.35,4.39-1.58,6.27S88,56.2,87.15,54.13A7.42,7.42,0,0,1,87.72,48a18.39,18.39,0,0,1,4.2-6A3.6,3.6,0,0,1,92.65,41.06Z"/><path class="cls-7" d="M158.15,21.7a1.73,1.73,0,0,1-1.79.52A74.22,74.22,0,0,0,120,20.72C78.6,29.33,52.24,71,61.14,113.76L49.56,128.27l-.69.9c-3.43-6.32-6.43-12.81-8-20.15-9-43.42,21.62-86.52,68.47-96.27a91,91,0,0,1,50.73,3.75,1.38,1.38,0,0,1,.58,2.22Z"/><path class="cls-8" d="M158.16,21.74a1.62,1.62,0,0,1-1.72.49C145,18.06,119.67,19.59,104,26.49,70.05,41.4,54.09,78.54,61.17,113.71l-5.81,7.36c-3.26-5.93-2.9-5.85-4.33-12.75-8.49-40.78,19.42-81.18,64.39-90.43,17.67-3.63,27.26-3.05,44.67,1.15a.1.1,0,0,1,0,.16Z"/><path class="cls-9" d="M162,22.35a1.72,1.72,0,0,1-2,.17,74.78,74.78,0,0,0-38.27-10.61c-45.87,0-83.06,42.34-83.06,94.56l-15.5,14.16-.93.89C20,113.29,18.2,105,18.2,96c0-53,42.07-96,94-96a92.13,92.13,0,0,1,53,16.75,1.74,1.74,0,0,1,.12,2.73Z"/><path class="cls-10" d="M162,22.4a1.64,1.64,0,0,1-1.94.15c-11.19-7.66-38.45-12-56.63-7.78C64.08,24,38.93,63.53,38.67,106.43l-7.79,7.19c-2.15-7.73-1.78-7.56-1.78-16,0-49.8,38.55-90.29,88.34-90.16,19.56,0,29.62,3.06,47.17,12.22a.13.13,0,0,1,0,.2Z"/><path class="cls-11" d="M204.92,76.69a1.74,1.74,0,0,0-.84,1.66,74.38,74.38,0,0,1-5.38,36c-16.27,39.05-62.15,57.09-102.47,40.29L79.8,163.26l-1,.5c5.56,4.56,11.37,8.73,18.29,11.61,40.94,17.06,89.05-4.92,107.45-49.09a91.09,91.09,0,0,0,5.88-50.53,1.37,1.37,0,0,0-2.07-1Z"/><path class="cls-12" d="M204.89,76.68a1.62,1.62,0,0,0-.81,1.6c1.95,12-4.34,36.61-14.07,50.71-21,30.52-60.52,39.19-93.73,25.61L88,158.91c5.21,4.32,5.2,4,11.7,6.66,38.45,16,83.39-3.77,101-46.19,6.9-16.67,8.14-26.2,7.29-44.08a.09.09,0,0,0-.15-.07Z"/><path class="cls-13" d="M205,72.82a1.75,1.75,0,0,0-.54,2,74.84,74.84,0,0,1,3.2,39.58C199,159.4,150.43,187.94,99.15,178.1L82.32,190.65l-1,.74c7.65,3.76,15.51,7.05,24.31,8.74,52.07,10,102.21-23.22,112-74.18a92.13,92.13,0,0,0-6.45-55.24,1.73,1.73,0,0,0-2.66-.63Z"/><path class="cls-14" d="M205,72.82a1.63,1.63,0,0,0-.52,1.87c5.41,12.43,4.57,40-3,57.09-16.44,36.88-60,54.12-102.21,46.28l-8.53,6.3c7.18,3.57,7.08,3.18,15.34,4.76,48.9,9.39,95.94-20.84,105.2-69.76,3.63-19.22,2.57-29.67-3.12-48.63a.12.12,0,0,0-.19,0Z"/><path class="cls-2" d="M11.91,228.78v4.95a8.69,8.69,0,0,1-2.69.49,8.26,8.26,0,0,1-6.67-3.09A12.33,12.33,0,0,1,0,223a11.51,11.51,0,0,1,2.58-7.71,8.2,8.2,0,0,1,6.51-3,9.37,9.37,0,0,1,2.82.41v5a8.19,8.19,0,0,0-2.57-.45,3.65,3.65,0,0,0-3.06,1.68,8.42,8.42,0,0,0,0,8.75,3.91,3.91,0,0,0,3.27,1.63A7.39,7.39,0,0,0,11.91,228.78Z"/><path class="cls-2" d="M15,212.84h9.58v4.44H19.7v3.84h4.21v4.33H19.7v3.8h4.88v4.45H15Z"/><path class="cls-2" d="M28.31,212.84h4.78l6,12-.17-2.25v-9.78h4.73V233.7H38.81l-5.89-11.84.13,2.59v9.25H28.31Z"/><path class="cls-2" d="M46.59,212.84h11.3v4.77H54.63V233.7h-4.8V217.61H46.59Z"/><path class="cls-2" d="M60.83,212.84h5.51a7.74,7.74,0,0,1,5.29,1.72,5.93,5.93,0,0,1,1.93,4.67,6.26,6.26,0,0,1-.73,2.93,4.82,4.82,0,0,1-2.14,2.14l3.78,9.4h-5l-3.83-9.5h-.08v9.5H60.83Zm4.73,4v5c2.1,0,3.14-.78,3.14-2.21a2.59,2.59,0,0,0-.72-2.07A3.86,3.86,0,0,0,65.56,216.87Z"/><path class="cls-2" d="M83.94,234.22a6.56,6.56,0,0,1-5.77-2.9q-2-2.9-2-8.37,0-5,2-7.87a6.42,6.42,0,0,1,5.55-2.82,6.69,6.69,0,0,1,5.81,2.83q2,2.83,2,8.08t-2,8.15A6.42,6.42,0,0,1,83.94,234.22ZM83.77,217q-2.56,0-2.57,6a13.51,13.51,0,0,0,.65,5.18,2,2,0,0,0,1.88,1.29,2.22,2.22,0,0,0,2-1.29c.48-.87.71-2.56.71-5.08Q86.48,217,83.77,217Z"/><path class="cls-2" d="M102.91,212.84h4.42c3.06,0,5.39.88,7,2.62s2.39,4.29,2.39,7.65a13.66,13.66,0,0,1-1.18,6.15,7.18,7.18,0,0,1-3.29,3.39,10.44,10.44,0,0,1-4.68,1h-4.64Zm4.73,4.44v12a3.84,3.84,0,0,0,3-1.52,8.28,8.28,0,0,0,.89-4.4,13.39,13.39,0,0,0-.31-3.07,4.45,4.45,0,0,0-.93-1.94,2.77,2.77,0,0,0-1.21-.84A7.68,7.68,0,0,0,107.64,217.28Z"/><path class="cls-2" d="M119.89,212.84h9.58v4.44h-4.85v3.84h4.21v4.33h-4.21v3.8h4.88v4.45h-9.61Z"/><path class="cls-2" d="M133.23,212.84h5.86a6.93,6.93,0,0,1,5,1.77,6.83,6.83,0,0,1,0,9.43,7.54,7.54,0,0,1-5.26,1.72H138v7.94h-4.74Zm4.74,4v4.92a4,4,0,0,0,2.35-.61,2.15,2.15,0,0,0,.76-1.82,2.23,2.23,0,0,0-.74-1.9A4.1,4.1,0,0,0,138,216.84Z"/><path class="cls-2" d="M156.31,234.22a6.55,6.55,0,0,1-5.76-2.9q-2-2.9-2-8.37c0-3.36.67-6,2-7.87a6.42,6.42,0,0,1,5.56-2.82,6.68,6.68,0,0,1,5.8,2.83q2,2.83,2,8.08t-2,8.15A6.4,6.4,0,0,1,156.31,234.22ZM156.14,217q-2.56,0-2.56,6c0,2.59.21,4.31.65,5.18a2,2,0,0,0,1.88,1.29,2.24,2.24,0,0,0,2-1.29c.47-.87.71-2.56.71-5.08Q158.86,217,156.14,217Z"/><path class="cls-2" d="M167.44,212.84H173a7.7,7.7,0,0,1,5.28,1.72,5.94,5.94,0,0,1,1.94,4.67,6.26,6.26,0,0,1-.73,2.93,4.87,4.87,0,0,1-2.14,2.14l3.78,9.4h-5l-3.83-9.5h-.08v9.5h-4.73Zm4.73,4v5c2.1,0,3.14-.78,3.14-2.21a2.59,2.59,0,0,0-.72-2.07A3.86,3.86,0,0,0,172.17,216.87Z"/><path class="cls-2" d="M182.19,212.84h11.29v4.77h-3.26V233.7h-4.8V217.61h-3.23Z"/><path class="cls-2" d="M196.59,212.84h4.74V233.7h-4.74Z"/><path class="cls-2" d="M204,212.84H209l2.58,9.22a39.27,39.27,0,0,1,1,4.67h.06q.24-1.69.51-2.79l2.88-11.1h5.06L214.8,233.7h-4.39Z"/><path class="cls-2" d="M229.83,234.22a6.56,6.56,0,0,1-5.77-2.9q-2-2.9-2-8.37,0-5,2-7.87a6.42,6.42,0,0,1,5.55-2.82,6.69,6.69,0,0,1,5.81,2.83q2,2.83,2,8.08t-2,8.15A6.42,6.42,0,0,1,229.83,234.22ZM229.66,217q-2.57,0-2.57,6a13.51,13.51,0,0,0,.65,5.18,2,2,0,0,0,1.88,1.29,2.22,2.22,0,0,0,2-1.29c.48-.87.71-2.56.71-5.08Q232.37,217,229.66,217Z"/><path class="cls-2" d="M29.51,246.71v3.63h-.63v-9.07h2.19a3.16,3.16,0,0,1,2.14.65,2.38,2.38,0,0,1,.74,1.89,2.77,2.77,0,0,1-.83,2.08,3.16,3.16,0,0,1-2.31.82Zm0-4.86v4.28H30.8a2.66,2.66,0,0,0,1.86-.58,2.15,2.15,0,0,0,.65-1.66c0-1.36-.79-2-2.35-2Z"/><path class="cls-2" d="M40.57,250.34l-1.21-2.66a3,3,0,0,0-.74-1.1,1.56,1.56,0,0,0-.94-.28H36.56v4h-.63v-9.07h2.52a2.66,2.66,0,0,1,1.89.65,2.26,2.26,0,0,1,.68,1.71,2.4,2.4,0,0,1-.56,1.64,2.63,2.63,0,0,1-1.58.85v0a2.46,2.46,0,0,1,1,1.31l1.35,2.89Zm-4-8.49v3.88h1.56a2.41,2.41,0,0,0,1.65-.54,1.9,1.9,0,0,0,.61-1.5,1.73,1.73,0,0,0-.55-1.35,2.28,2.28,0,0,0-1.58-.49Z"/><path class="cls-2" d="M46.86,250.5a3.93,3.93,0,0,1-3.07-1.27,4.83,4.83,0,0,1-1.14-3.33,5,5,0,0,1,1.17-3.48,4.09,4.09,0,0,1,3.21-1.3,3.81,3.81,0,0,1,3,1.25,4.73,4.73,0,0,1,1.14,3.3A5.07,5.07,0,0,1,50,249.21,4,4,0,0,1,46.86,250.5Zm.06-8.81a3.32,3.32,0,0,0-2.6,1.15,4.32,4.32,0,0,0-1,3,4.42,4.42,0,0,0,1,3,3.27,3.27,0,0,0,2.59,1.11,3.39,3.39,0,0,0,2.66-1.1,4.45,4.45,0,0,0,1-3.06,4.36,4.36,0,0,0-1-3A3.3,3.3,0,0,0,46.92,241.69Z"/><path class="cls-2" d="M55.37,246.89v3.45h-.62v-3.43L52,241.27h.7l2.11,4.38a7.12,7.12,0,0,1,.29.66h0c.06-.15.17-.37.31-.65l2.22-4.39h.68Z"/><path class="cls-2" d="M59.74,250.34v-9.07H64v.58H60.37v3.64h3.35v.57H60.37v3.72h3.82v.56Z"/><path class="cls-2" d="M72.25,250.05a6,6,0,0,1-2.29.45,4,4,0,0,1-3-1.25A4.57,4.57,0,0,1,65.75,246,4.91,4.91,0,0,1,67,242.45a4.28,4.28,0,0,1,3.24-1.33,5.78,5.78,0,0,1,2,.34v.66a4.75,4.75,0,0,0-2-.43,3.63,3.63,0,0,0-2.78,1.16,4.37,4.37,0,0,0-1.07,3.08,4.06,4.06,0,0,0,1,2.93A3.43,3.43,0,0,0,70,249.93a5,5,0,0,0,2.24-.49Z"/><path class="cls-2" d="M76.74,241.85v8.49h-.63v-8.49H73.5v-.58h5.85v.58Z"/><path class="cls-2" d="M83.76,250.5a3.9,3.9,0,0,1-3.07-1.27,4.83,4.83,0,0,1-1.14-3.33,5,5,0,0,1,1.17-3.48,4.09,4.09,0,0,1,3.21-1.3,3.81,3.81,0,0,1,3,1.25,4.77,4.77,0,0,1,1.13,3.3,5.07,5.07,0,0,1-1.16,3.54A4,4,0,0,1,83.76,250.5Zm.06-8.81a3.32,3.32,0,0,0-2.6,1.15,4.28,4.28,0,0,0-1,3,4.42,4.42,0,0,0,1,3,3.25,3.25,0,0,0,2.58,1.11,3.42,3.42,0,0,0,2.67-1.1,4.45,4.45,0,0,0,1-3.06,4.36,4.36,0,0,0-1-3A3.31,3.31,0,0,0,83.82,241.69Z"/><path class="cls-2" d="M99.47,250.05a6,6,0,0,1-2.3.45,3.94,3.94,0,0,1-3-1.25A4.57,4.57,0,0,1,93,246a4.91,4.91,0,0,1,1.27-3.54,4.26,4.26,0,0,1,3.23-1.33,5.84,5.84,0,0,1,2,.34v.66a4.81,4.81,0,0,0-2-.43,3.61,3.61,0,0,0-2.78,1.16,4.37,4.37,0,0,0-1.07,3.08,4.1,4.1,0,0,0,1,2.93,3.45,3.45,0,0,0,2.6,1.07,5,5,0,0,0,2.24-.49Z"/><path class="cls-2" d="M101.49,250.34v-9.07h4.24v.58h-3.61v3.64h3.35v.57h-3.35v3.72h3.82v.56Z"/><path class="cls-2" d="M114.39,250.34,109,243a3.45,3.45,0,0,1-.3-.44l-.08-.13h0c0,.11,0,.24,0,.4v7.5H108v-9.07h.48l5.37,7.27c.12.16.25.36.39.59h0c0-.3,0-.56,0-.77v-7.09h.62v9.07Z"/><path class="cls-2" d="M119.62,241.85v8.49H119v-8.49h-2.62v-.58h5.86v.58Z"/><path class="cls-2" d="M128.43,250.34l-1.21-2.66a3,3,0,0,0-.75-1.1,1.53,1.53,0,0,0-.93-.28h-1.13v4h-.62v-9.07h2.52a2.62,2.62,0,0,1,1.88.65,2.23,2.23,0,0,1,.69,1.71,2.45,2.45,0,0,1-.56,1.64,2.66,2.66,0,0,1-1.58.85v0a2.46,2.46,0,0,1,1.05,1.31l1.35,2.89Zm-4-8.49v3.88H126a2.38,2.38,0,0,0,1.65-.54,1.9,1.9,0,0,0,.61-1.5,1.7,1.7,0,0,0-.55-1.35,2.26,2.26,0,0,0-1.57-.49Z"/><path class="cls-2" d="M134.71,250.5a3.9,3.9,0,0,1-3.06-1.27,4.83,4.83,0,0,1-1.14-3.33,5,5,0,0,1,1.17-3.48,4.08,4.08,0,0,1,3.2-1.3,3.78,3.78,0,0,1,3,1.25,4.73,4.73,0,0,1,1.14,3.3,5.12,5.12,0,0,1-1.16,3.54A4,4,0,0,1,134.71,250.5Zm.07-8.81a3.34,3.34,0,0,0-2.61,1.15,4.32,4.32,0,0,0-1,3,4.37,4.37,0,0,0,1,3,3.24,3.24,0,0,0,2.58,1.11,3.42,3.42,0,0,0,2.67-1.1,4.45,4.45,0,0,0,1-3.06,4.36,4.36,0,0,0-1-3A3.31,3.31,0,0,0,134.78,241.69Z"/><path class="cls-2" d="M144.4,250.34v-9.07h2.27a4.76,4.76,0,0,1,3.44,1.13,4.34,4.34,0,0,1,1.17,3.28,4.39,4.39,0,0,1-4.74,4.66Zm.63-8.49v7.93h1.42a4.28,4.28,0,0,0,3.1-1.05,4,4,0,0,0,1.08-3q0-3.85-4.06-3.85Z"/><path class="cls-2" d="M153.13,250.34v-9.07h4.24v.58h-3.61v3.64h3.35v.57h-3.35v3.72h3.82v.56Z"/><path class="cls-2" d="M160.24,246.71v3.63h-.63v-9.07h2.19a3.18,3.18,0,0,1,2.14.65,2.38,2.38,0,0,1,.74,1.89,2.8,2.8,0,0,1-.83,2.08,3.16,3.16,0,0,1-2.31.82Zm0-4.86v4.28h1.29a2.66,2.66,0,0,0,1.86-.58,2.15,2.15,0,0,0,.64-1.66q0-2-2.34-2Z"/><path class="cls-2" d="M170.39,250.5a3.9,3.9,0,0,1-3.06-1.27,4.83,4.83,0,0,1-1.14-3.33,5,5,0,0,1,1.17-3.48,4.08,4.08,0,0,1,3.2-1.3,3.81,3.81,0,0,1,3,1.25,4.73,4.73,0,0,1,1.14,3.3,5.12,5.12,0,0,1-1.16,3.54A4,4,0,0,1,170.39,250.5Zm.07-8.81a3.32,3.32,0,0,0-2.61,1.15,4.32,4.32,0,0,0-1,3,4.37,4.37,0,0,0,1,3,3.24,3.24,0,0,0,2.58,1.11,3.39,3.39,0,0,0,2.66-1.1,5.24,5.24,0,0,0,0-6.06A3.31,3.31,0,0,0,170.46,241.69Z"/><path class="cls-2" d="M181.17,250.34,180,247.68a3,3,0,0,0-.75-1.1,1.53,1.53,0,0,0-.93-.28h-1.13v4h-.62v-9.07h2.52a2.62,2.62,0,0,1,1.88.65,2.23,2.23,0,0,1,.69,1.71,2.45,2.45,0,0,1-.56,1.64,2.66,2.66,0,0,1-1.58.85v0a2.46,2.46,0,0,1,1.05,1.31l1.35,2.89Zm-4-8.49v3.88h1.56a2.38,2.38,0,0,0,1.65-.54,1.9,1.9,0,0,0,.61-1.5,1.7,1.7,0,0,0-.55-1.35,2.26,2.26,0,0,0-1.57-.49Z"/><path class="cls-2" d="M186.18,241.85v8.49h-.62v-8.49h-2.62v-.58h5.86v.58Z"/><path class="cls-2" d="M190.35,250.34v-9.07H191v9.07Z"/><path class="cls-2" d="M196.18,250.34h-.47l-3.32-9.07h.71l2.62,7.31a5.35,5.35,0,0,1,.24.86h0a4.68,4.68,0,0,1,.25-.87l2.79-7.3h.68Z"/><path class="cls-2" d="M204.75,250.5a3.9,3.9,0,0,1-3.06-1.27,4.83,4.83,0,0,1-1.15-3.33,5,5,0,0,1,1.18-3.48,4.08,4.08,0,0,1,3.2-1.3,3.81,3.81,0,0,1,3,1.25,4.73,4.73,0,0,1,1.14,3.3,5.12,5.12,0,0,1-1.16,3.54A4,4,0,0,1,204.75,250.5Zm.07-8.81a3.32,3.32,0,0,0-2.61,1.15,4.32,4.32,0,0,0-1,3,4.37,4.37,0,0,0,1,3,3.24,3.24,0,0,0,2.58,1.11,3.39,3.39,0,0,0,2.66-1.1,5.24,5.24,0,0,0,0-6.06A3.31,3.31,0,0,0,204.82,241.69Z"/><line class="cls-2" x1="4.02" y1="246.09" x2="22.44" y2="246.3"/><line class="cls-2" x1="212.2" y1="246.09" x2="230.63" y2="246.3"/></g></g></svg>