<svg xmlns="http://www.w3.org/2000/svg" xmlns:xlink="http://www.w3.org/1999/xlink" viewBox="0 0 201.03 201.91"><defs><style>.cls-1{fill:#182b3a;}.cls-2{fill:#0ca8cc;}.cls-3{fill:#087294;}.cls-4{fill:url(#Degradado_sin_nombre_6);}.cls-5{fill:#fefefe;}.cls-6{fill:#20bae0;}.cls-7{fill:#2392cf;}.cls-8{fill:#f69f15;}.cls-9{fill:#cf4a17;}.cls-10{fill:#328c36;}.cls-11{fill:#9cc426;}.cls-12{fill:#0e212e;}.cls-13{fill:#09b5d5;}</style><linearGradient id="Degradado_sin_nombre_6" x1="72.52" y1="43.09" x2="79.7" y2="38.58" gradientUnits="userSpaceOnUse"><stop offset="0.04" stop-color="#087294"/><stop offset="1" stop-color="#0ca8cc"/></linearGradient></defs><title>logo-centro-deportivo-solo</title><g id="Capa_2" data-name="Capa 2"><g id="Capa_1-2" data-name="Capa 1"><path class="cls-1" d="M117.39,80.22a11.56,11.56,0,0,1-6.48,1.24c-5.13-.19-8.38,2.26-12.36,5.15-2.22,1.61-4.24,3.5-6.34,5.27l.2.34a14.44,14.44,0,0,0,2.15-1,24.77,24.77,0,0,1,10.6-3.81c3.08-.41,6.19-1.18,9.24-1,10.18.56,19.62,3.56,27.69,10,3.82,3,6.37,7,6.11,12.08a46.55,46.55,0,0,1-1.2,6.31c-3.11-4.43-7.32-6.38-11.86-7.45a26.26,26.26,0,0,0-14.33.3,50.25,50.25,0,0,1-18,2.58c-6-.28-11.63-1.75-15.73-6.44-4.61-5.28-5.74-11.34-3.39-18.06,2.06-5.9,6.07-10.47,9.74-15.34S100.52,60.24,103.75,55c2.22-3.64,3.94-7.59,5.88-11.4a20.33,20.33,0,0,1,8,4.6c2.88,2.48,4.46,5.78,5.82,9.22a23,23,0,0,1,.18,9.43C122.76,71.87,120.35,76.16,117.39,80.22Z"/><path class="cls-2" d="M117.39,80.22c3-4.06,5.37-8.35,6.26-13.41a23,23,0,0,0-.18-9.43c.92-1.8,1.88-3.58,2.72-5.41a2.56,2.56,0,0,0,.19-1.9,30.9,30.9,0,0,0-3.36-6,23.1,23.1,0,0,0-16.45-8.52,74.16,74.16,0,0,0-11.64,0A63.19,63.19,0,0,0,87.19,37L80.4,39.37l-3.77-.07a28.93,28.93,0,0,1,3.5-2.79A87,87,0,0,1,98,28.23a42.23,42.23,0,0,1,7.48-1.44,60.9,60.9,0,0,1,8.1-.44c5.19.08,10.31.93,14.76,3.71a21.58,21.58,0,0,1,7.24,6.86,38.54,38.54,0,0,1,3.32,6.24,55.61,55.61,0,0,1,1.5,6.46c1.17,4.72,2.7,5.36,6.82,2.54.71-.5,1.33-1.13,2-1.69.24.14.45.2.48.3.9,3.86,4,6.41,5.8,9.7s3.58,6.68,5.25,10.08c.39.78.7,1.34,1.62,1.3-.22.38-.6.74-.64,1.13a1.94,1.94,0,0,1-2.29,2,16.49,16.49,0,0,1-2.81,0c-2.08-.41-4.41-.56-6.12-1.64-1.93-1.21-3.3-3.33-4.91-5.06q1.57-2.61,3.13-5.22c.14-.54,0-.65-.51-.39a14.33,14.33,0,0,0-2,1.76A38.65,38.65,0,0,1,135,73.48c-3.57,2.07-7.67,3.14-11.5,4.74-1.56.59-2.8.94-4.24,1.41C118.67,79.83,118.1,79.92,117.39,80.22Z"/><path class="cls-1" d="M25.89,169.87c1.91-3.05,6.58-5.36,8.42-8.45,2.34-3.93,4.37-8.06,6.9-11.85A66.2,66.2,0,0,1,60.1,130.88c4.27-2.8,7.18-6.59,9.69-10.82,3.08-5.18,6.06-10.43,9.08-15.65.31-.54.59-1.1.94-1.76,5.4,8.59,13.88,11.35,23.7,12.36-3.65,3-7,5.71-10.43,8.39a1.53,1.53,0,0,1-1.37,0,15.57,15.57,0,0,0-7.87-1.54c-2.65.09-4.59,1.59-6.15,3.57A18.51,18.51,0,0,0,75.41,129c-3.32,7-8.6,12.62-12.56,19.15-2.57,4.24-6.61,7.06-10.56,9.87a242.85,242.85,0,0,0-22.81,18c-.44.41-.92.79-1.38,1.19-.84-1.28-.49-2.68-.41-4.05C28,172.28,25.59,170.72,25.89,169.87Z"/><path class="cls-1" d="M93.2,129l15.73-10.45c4.82-3.2,9.8-6.07,15.55-7.22,6-1.21,11.91-1,17.5,1.74a14.61,14.61,0,0,1,3.48,2.82c.9.87.76,1.59-.37,2.49-7.89,6.24-17.25,9.31-26.56,12.43-8,2.7-16.2,5-24.29,7.54-1.83.57-3.62,1.28-5.42,1.92-.49-.71-.83-1.69-1.5-2.07a3.37,3.37,0,0,1-2-3.61c.83-.51,1.69-1,2.48-1.55C89.59,131.76,91.39,130.39,93.2,129Z"/><path class="cls-1" d="M155.3,21.08a11.72,11.72,0,0,1,11.43,8c1.69,4.54.08,10.18-4,13.67-3.17,2.74-6.7,4.46-10.84,2.44a14.8,14.8,0,0,1-7.71-9.15c-1.52-4.75-.06-8.76,3.55-12A10.18,10.18,0,0,1,155.3,21.08Z"/><path class="cls-1" d="M180.79,64.49c0-2-1.27-2.57-3-2.81-.62-.08-1.16-.79-1.73-1.22.06-.17.12-.34.19-.51l.45-.74a4,4,0,0,0-1.16-3.66c-2.2-2.46-2.32-5.55-1.81-8.53s3.8-3.55,6.31-1.5,3.19,4.83,3.13,7.82a21.7,21.7,0,0,1-2,9.7A5.7,5.7,0,0,0,180.79,64.49Z"/><path class="cls-3" d="M126.38,50.07a30.9,30.9,0,0,0-3.36-6,23.1,23.1,0,0,0-16.45-8.52,74.16,74.16,0,0,0-11.64,0A62.52,62.52,0,0,0,87.21,37L80.5,39.32c-3.07,1.46-4.23,2-7.24,3.48a.33.33,0,0,0-.1.06c-1.65,1.6-1.66,5.69-3.34,7.25.25,1.66,3,1,3.56,1.3-.28-5.42,1.28-5.91,4.74-7.1a60.52,60.52,0,0,1,23.08-2.85l8.43,2.1a20.33,20.33,0,0,1,8,4.6c2.88,2.48,4.46,5.78,5.82,9.22.92-1.8,1.88-3.58,2.72-5.41A2.56,2.56,0,0,0,126.38,50.07Z"/><path class="cls-4" d="M80.4,39.37c-3,1.44-4.86,3.21-7.88,4.66C74,41,74.59,41,76.22,39.57l.37-.27h0Z"/><path class="cls-3" d="M85.28,134.63a3.37,3.37,0,0,0,2,3.61c.67.38,1,1.36,1.5,2.07-.16.19-.29.46-.5.55A101.68,101.68,0,0,0,70.6,151a2.64,2.64,0,0,1-.57.24l-.39.27h0c-1.35-.58-.93-1.72-.88-2.75h0l.54-1h0c.13-.2.26-.4.38-.61a.53.53,0,0,1,0-.25l.18-.41h0l.33-.37a.18.18,0,0,1,.07-.15l.85-1.37v0l.43-.53h0L75,139.33h0l.58-1h0l.42-.52,0,0c1.79-.52,3.59-1,5.36-1.58C82.68,135.78,84,135.17,85.28,134.63Z"/><path class="cls-3" d="M85.28,134.63c-1.31.54-2.6,1.15-3.94,1.61-1.77.59-3.57,1.06-5.36,1.58l1.11-2.17c1-2,2.11-4,3.14-6.05,1.57-3.08,3-3.79,6.25-2.84,2.27.65,4.48,1.51,6.72,2.28-1.81,1.35-3.61,2.72-5.44,4C87,133.65,86.11,134.12,85.28,134.63Z"/><path class="cls-3" d="M68.75,148.77c0,1-.47,2.17.88,2.75l-2.84,2.11-.4-.37A8.64,8.64,0,0,1,68.75,148.77Z"/><path class="cls-2" d="M75,139.33,71.6,144.1Z"/><path class="cls-3" d="M177.77,61.68c-.62-.08-1.16-.79-1.73-1.22l-1.29,2.3s-.9.86-.93.92l-.31.41a.22.22,0,0,0-.1.13l-.19.18a.18.18,0,0,0-.12.12L169.8,68a11,11,0,0,1-1,.67c-2.13,1.08-4.27,2.14-6.41,3.2-.22.38-.6.74-.64,1.13a1.94,1.94,0,0,1-2.29,2,16.49,16.49,0,0,1-2.81,0c-2.08-.41-4.41-.56-6.12-1.64-1.93-1.21-3.3-3.33-4.91-5.06-1.12,1.3-2.2,2.63-3.36,3.9a2.41,2.41,0,0,0-.21,3.47,29.8,29.8,0,0,0,10.51,8.92c5.15,2.65,10.28,2.57,15.22-.84a31.54,31.54,0,0,0,6.9-7.13,40.08,40.08,0,0,0,6.12-12.07C180.77,62.48,179.52,61.92,177.77,61.68Z"/><path class="cls-2" d="M71.17,144.61,70.32,146Z"/><path class="cls-2" d="M69.3,147.77l-.54,1Z"/><path class="cls-2" d="M75.54,138.36l-.58,1Z"/><path class="cls-3" d="M176.68,59.21l-.45.74Z"/><path class="cls-2" d="M174.42,63l-.46.56Z"/><path class="cls-2" d="M69.68,147.16c-.12.21-.25.41-.38.61Z"/><path class="cls-2" d="M76,137.84l-.42.52Z"/><path class="cls-2" d="M173.82,63.68l-.31.41Z"/><path class="cls-1" d="M85.65,72.75l.63-.24Z"/><path class="cls-2" d="M71.59,144.1l-.43.53Z"/><path class="cls-2" d="M70.25,146.13l-.33.37Z"/><path class="cls-2" d="M69.64,151.52l.39-.27Z"/><path class="cls-2" d="M76.59,39.3l-.37.27Z"/><path class="cls-1" d="M85.34,73.07l.35-.33Z"/><path class="cls-2" d="M69.91,146.5l-.18.41Z"/><path class="cls-5" d="M149.12,61.8l-.27.51-.22-.1.23-.56Z"/><path class="cls-3" d="M26.37,169.82A3.38,3.38,0,0,0,29,173c.73.25,1.24,1.16,1.84,1.77-.12.21-.2.5-.39.62a101.79,101.79,0,0,0-15.65,13.13,3.06,3.06,0,0,1-.52.33l-.34.34h0c-1.44-.33-1.23-1.52-1.35-2.54h0l.36-1.08h0l.27-.67a.46.46,0,0,1,0-.26c0-.14.07-.29.11-.43h0c.09-.14.18-.28.26-.42a.19.19,0,0,1,.05-.16c.2-.5.39-1,.59-1.49v0l.33-.6h0L17,176.27h0l.39-1.07h0c.11-.2.22-.39.32-.59h0c1.67-.83,3.37-1.61,5-2.51C24,171.42,25.18,170.58,26.37,169.82Z"/><path class="cls-3" d="M26.37,169.82c-1.19.76-2.35,1.6-3.6,2.28-1.63.9-3.33,1.68-5,2.51l.72-2.34c.68-2.17,1.36-4.34,2-6.51,1-3.31,2.25-4.25,5.65-3.9,2.35.24,4.68.7,7,1.06-1.54,1.65-3.06,3.32-4.63,4.94C27.86,168.56,27.1,169.17,26.37,169.82Z"/><path class="cls-3" d="M12.6,186.66c.12,1-.09,2.21,1.35,2.54l-2.43,2.58-.46-.29A8.57,8.57,0,0,1,12.6,186.66Z"/><path class="cls-1" d="M74.44,41.06a1.88,1.88,0,0,0,.84,2.71c.34.22.44.85.65,1.29l-.27.3-.5.38a3.26,3.26,0,0,0-.45,2.8c.54,2.26-.35,4.39-1.58,6.27s-3.34,1.39-4.19-.68A7.46,7.46,0,0,1,69.52,48a18.24,18.24,0,0,1,4.2-6A3.35,3.35,0,0,1,74.44,41.06Z"/><path class="cls-6" d="M140,21.7a1.74,1.74,0,0,1-1.79.52,74.22,74.22,0,0,0-36.35-1.5C60.39,29.33,34,71,42.93,113.76L31.35,128.27l-.68.9c-3.43-6.32-6.44-12.81-8-20.15-9-43.42,21.62-86.52,68.46-96.27a91,91,0,0,1,50.74,3.75,1.37,1.37,0,0,1,.57,2.22Z"/><path class="cls-7" d="M140,21.74a1.63,1.63,0,0,1-1.72.49c-11.41-4.17-36.77-2.64-52.46,4.26C51.85,41.4,35.88,78.54,43,113.71l-5.8,7.36c-3.26-5.93-2.9-5.85-4.34-12.75C24.34,67.54,52.24,27.14,97.21,17.89c17.67-3.63,27.26-3.05,44.67,1.15a.1.1,0,0,1,0,.16Z"/><path class="cls-8" d="M143.77,22.35a1.73,1.73,0,0,1-2,.17,74.71,74.71,0,0,0-38.26-10.61c-45.88,0-83.06,42.34-83.06,94.56L4.93,120.63l-.93.89C1.75,113.29,0,105,0,96,0,43,42.07,0,94,0a92.07,92.07,0,0,1,53,16.75,1.72,1.72,0,0,1,.12,2.73Z"/><path class="cls-9" d="M143.76,22.4a1.63,1.63,0,0,1-1.93.15c-11.19-7.66-38.46-12-56.64-7.78C45.87,24,20.72,63.53,20.47,106.43l-7.79,7.19c-2.15-7.73-1.79-7.56-1.79-16,0-49.8,38.56-90.29,88.34-90.16,19.57,0,29.62,3.06,47.17,12.22a.12.12,0,0,1,0,.2Z"/><path class="cls-10" d="M186.72,76.69a1.74,1.74,0,0,0-.84,1.66,74.38,74.38,0,0,1-5.38,36C164.23,153.38,118.35,171.42,78,154.62L61.6,163.26l-1,.5c5.55,4.56,11.37,8.73,18.29,11.61,40.94,17.06,89-4.92,107.45-49.09a91.09,91.09,0,0,0,5.88-50.53,1.38,1.38,0,0,0-2.07-1Z"/><path class="cls-11" d="M186.69,76.68a1.62,1.62,0,0,0-.81,1.6c2,12-4.34,36.61-14.07,50.71-21.05,30.52-60.52,39.19-93.74,25.61l-8.31,4.31c5.2,4.32,5.2,4,11.7,6.66,38.45,16,83.39-3.77,101-46.19,6.89-16.67,8.13-26.2,7.28-44.08a.09.09,0,0,0-.14-.07Z"/><path class="cls-12" d="M186.8,72.82a1.75,1.75,0,0,0-.55,2,74.74,74.74,0,0,1,3.21,39.58c-8.65,45.05-57.23,73.59-108.52,63.75L64.12,190.65l-1.06.74c7.66,3.76,15.51,7.05,24.31,8.74,52.07,10,102.21-23.22,112-74.18a92.13,92.13,0,0,0-6.45-55.24,1.73,1.73,0,0,0-2.66-.63Z"/><path class="cls-13" d="M186.76,72.82a1.6,1.6,0,0,0-.52,1.87c5.41,12.43,4.57,40-3,57.09-16.44,36.88-60,54.12-102.22,46.28l-8.53,6.3c7.18,3.57,7.08,3.18,15.35,4.76,48.9,9.39,95.93-20.84,105.19-69.76,3.64-19.22,2.58-29.67-3.11-48.63a.12.12,0,0,0-.19,0Z"/></g></g></svg>